<svg xmlns="http://www.w3.org/2000/svg" xmlns:xlink="http://www.w3.org/1999/xlink" width="14" height="14" viewBox="0 0 16 16">
  <defs></defs>
     <g id="Page-1" stroke="none" stroke-width="1" fill="none" fill-rule="evenodd">
        <g id="status-delivered" fill="#000000">
            <path d="M8,16 C12.4183,16 16,12.4183 16,8 C16,3.58172 12.4183,0 8,0 C3.58172,0 0,3.58172 0,8 C0,12.4183 3.58172,16 8,16 Z M11.7739,5.59308 C12.0512,5.11547 11.8888,4.50348 11.4112,4.22615 C10.9336,3.94883 10.3216,4.1112 10.0443,4.58881 L7.41661,9.11423 C7.36716,9.19939 7.25046,9.21461 7.18083,9.14497 L5.79799,7.76213 C5.40746,7.37161 4.7743,7.37161 4.38377,7.76213 C3.99325,8.15266 3.99325,8.78582 4.38377,9.17635 L6.82366,11.6162 C7.04318,11.8358 7.35222,11.9409 7.66007,11.9007 C7.96792,11.8606 8.23966,11.6797 8.39555,11.4113 L11.7739,5.59308 Z" id="Shape"></path>
        </g>
    </g>
</svg>
