<svg xmlns="http://www.w3.org/2000/svg" xmlns:xlink="http://www.w3.org/1999/xlink" width="14" height="14" viewBox="0 0 16 16">
  <defs>
  </defs>
  <g id="Page-1" stroke="none" stroke-width="1" fill="none" fill-rule="evenodd">
        <g id="status-sent" fill="#000000">
            <path d="M11.5921,5.77486 C11.8694,5.29725 11.707,4.68526 11.2294,4.40794 C10.7518,4.13062 10.1398,4.29298 9.86248,4.77059 L7.44596,8.93238 C7.39652,9.01754 7.27981,9.03275 7.21018,8.96312 L5.97983,7.73278 C5.58931,7.34225 4.95614,7.34225 4.56562,7.73278 C4.1751,8.1233 4.1751,8.75647 4.56562,9.14699 L6.85301,11.4344 C7.07254,11.6539 7.38157,11.759 7.68942,11.7189 C7.99727,11.6787 8.26902,11.4979 8.42491,11.2294 L11.5921,5.77486 Z" id="Path" fill-rule="nonzero"></path>
            <path d="M16,8 C16,12.4183 12.4183,16 8,16 C3.58172,16 0,12.4183 0,8 C0,3.58172 3.58172,0 8,0 C12.4183,0 16,3.58172 16,8 Z M14,8 C14,11.3137 11.3137,14 8,14 C4.68629,14 2,11.3137 2,8 C2,4.68629 4.68629,2 8,2 C11.3137,2 14,4.68629 14,8 Z" id="Shape"></path>
        </g>
    </g>
</svg>
